<svg xmlns="http://www.w3.org/2000/svg" viewBox="0 0 96 96">
  <!-- Sir Fluffington: a decorated dust-bunny knight, terribly brave -->
  <ellipse cx="48" cy="88" rx="28" ry="6" fill="#00000026"/>
  <circle cx="48" cy="52" r="30" fill="#d9c8ef"/>
  <path d="M48 26 C62 26 74 38 74 52 C74 44 64 34 48 34 C32 34 22 44 22 52 C22 38 34 26 48 26 Z" fill="#f5e9ff"/>
  <path d="M22 40 q-6 -8 0 -14 q5 2 6 10 Z" fill="#d9c8ef"/>
  <path d="M74 40 q6 -8 0 -14 q-5 2 -6 10 Z" fill="#d9c8ef"/>
  <circle cx="38" cy="50" r="7" fill="#fff"/>
  <circle cx="58" cy="50" r="7" fill="#fff"/>
  <circle cx="39.5" cy="51.5" r="3.2" fill="#2b2140"/>
  <circle cx="56.5" cy="51.5" r="3.2" fill="#2b2140"/>
  <path d="M42 64 q6 4 12 0" stroke="#2b2140" stroke-width="2.5" fill="none" stroke-linecap="round"/>
  <path d="M30 18 q18 -10 36 0 l-4 8 q-14 -7 -28 0 Z" fill="#8a92b8"/>
  <rect x="44" y="8" width="8" height="12" rx="3" fill="#8a92b8"/>
  <circle cx="48" cy="10" r="2" fill="#ffd97a"/>
  <path d="M48 70 l-4 8 h8 Z" fill="#ffd97a"/>
  <path d="M20 58 q-8 0 -10 -6 q4 -4 10 -2 Z" fill="#8a92b8"/>
</svg>
