<svg xmlns="http://www.w3.org/2000/svg" viewBox="0 0 64 64">
  <!-- Duvet Golem: a stack of enchanted bedding with opinions about bedtime -->
  <ellipse cx="32" cy="57" rx="17" ry="4" fill="#00000026"/>
  <rect x="12" y="42" width="40" height="14" rx="7" fill="#5d5388"/>
  <rect x="14" y="30" width="36" height="14" rx="7" fill="#6a5f8e"/>
  <rect x="17" y="18" width="30" height="14" rx="7" fill="#7d72a8"/>
  <path d="M17 24 q6 3 12 0 q6 3 12 0" stroke="#9a90c4" stroke-width="2" fill="none"/>
  <circle cx="26" cy="25" r="4" fill="#fff"/>
  <circle cx="38" cy="25" r="4" fill="#fff"/>
  <circle cx="27" cy="26" r="2" fill="#2b2140"/>
  <circle cx="37" cy="26" r="2" fill="#2b2140"/>
  <path d="M29 30 l6 0" stroke="#2b2140" stroke-width="2" stroke-linecap="round"/>
  <path d="M12 48 q-5 0 -6 -5 q3 -3 8 -1 Z" fill="#5d5388"/>
  <path d="M52 48 q5 0 6 -5 q-3 -3 -8 -1 Z" fill="#5d5388"/>
  <circle cx="20" cy="50" r="1.8" fill="#9a90c4"/>
  <circle cx="44" cy="36" r="1.8" fill="#9a90c4"/>
</svg>
